<svg xmlns="http://www.w3.org/2000/svg" width="70.732" height="46.234" viewBox="0 0 70.732 46.234">
  <g id="Group_2" data-name="Group 2" transform="translate(-252.182 -106)">
    <path id="Path_2" data-name="Path 2" d="M1.182-.566V-2.5a3.755,3.755,0,0,0,.8.527,6.448,6.448,0,0,0,.977.4,7.774,7.774,0,0,0,1.03.249,5.744,5.744,0,0,0,.957.088A3.749,3.749,0,0,0,7.2-1.8a1.9,1.9,0,0,0,.747-1.616A1.9,1.9,0,0,0,7.7-4.4a2.805,2.805,0,0,0-.688-.767,6.832,6.832,0,0,0-1.04-.664q-.6-.317-1.294-.669-.732-.371-1.367-.752a5.924,5.924,0,0,1-1.1-.84,3.5,3.5,0,0,1-.737-1.04A3.219,3.219,0,0,1,1.2-10.5a3.2,3.2,0,0,1,.42-1.665,3.6,3.6,0,0,1,1.1-1.167,5,5,0,0,1,1.558-.684,7.132,7.132,0,0,1,1.782-.225,6.83,6.83,0,0,1,3.018.5v1.846A5.47,5.47,0,0,0,5.9-12.754a5.236,5.236,0,0,0-1.074.112,3.034,3.034,0,0,0-.957.366,2.12,2.12,0,0,0-.684.654,1.737,1.737,0,0,0-.264.977,2.011,2.011,0,0,0,.2.928A2.274,2.274,0,0,0,3.711-9a5.885,5.885,0,0,0,.952.625q.562.3,1.294.664.752.371,1.426.781a6.517,6.517,0,0,1,1.182.908,4.036,4.036,0,0,1,.806,1.1,3.1,3.1,0,0,1,.3,1.387,3.517,3.517,0,0,1-.405,1.753A3.326,3.326,0,0,1,8.169-.615,4.777,4.777,0,0,1,6.582.034a8.691,8.691,0,0,1-1.895.2,7.72,7.72,0,0,1-.82-.054q-.488-.054-1-.156a8.128,8.128,0,0,1-.962-.254A2.993,2.993,0,0,1,1.182-.566ZM23.3,0H21.484L20-3.926H14.063L12.666,0H10.84l5.371-14h1.7ZM19.463-5.4l-2.2-5.967a5.713,5.713,0,0,1-.215-.937h-.039a5.231,5.231,0,0,1-.225.938L14.609-5.4ZM34.4-14,29.219,0H27.412L22.334-14H24.16L28.037-2.9a6.593,6.593,0,0,1,.283,1.24h.039a6.083,6.083,0,0,1,.322-1.26L32.637-14ZM43.838,0H36.416V-14h7.109v1.484H38.057v4.658h5.059v1.475H38.057v4.9h5.781ZM60.811,0H59.18V-9.395q0-1.113.137-2.725h-.039a8.711,8.711,0,0,1-.42,1.357L54.072,0h-.8L48.5-10.684a8.37,8.37,0,0,1-.42-1.436h-.039q.078.84.078,2.744V0H46.533V-14H48.7L53-4.238a12.5,12.5,0,0,1,.645,1.68H53.7q.42-1.152.674-1.719L58.76-14h2.051Zm11.1,0H64.492V-14H71.6v1.484H66.133v4.658h5.059v1.475H66.133v4.9h5.781Z" transform="translate(251 152)" fill="#707070"/>
    <path id="Path_3" data-name="Path 3" d="M13.5,0A13.5,13.5,0,1,1,0,13.5,13.5,13.5,0,0,1,13.5,0Z" transform="translate(274 106)" fill="#c71b1b"/>
  </g>
</svg>
